<svg xmlns="http://www.w3.org/2000/svg" viewBox="0 0 512 512">
<path fill="#ffffff" d="m 291.71804,279.21275 h -82.72268 v -10.55747 q 0,-18.0645 7.58749,-31.90623 7.58748,-14.07664 31.81685,-35.66031 l 14.68486,-12.90321 q 12.97179,-11.2611 19.09011,-21.58366 6.11833,-9.99394 6.11833,-20.12902 0,-15.39013 -11.01366,-23.95313 -11.01365,-8.79789 -30.83777,-8.79789 -18.60002,0 -40.13724,7.46071 -21.48887,7.2732 -44.8853,21.77114 V 73.909878 q 27.75333,-9.242906 50.7597,-13.654246 23.00526,-4.387632 44.29854,-4.387632 55.80117,0 85.16979,21.982344 29.36862,21.79486 29.36862,63.788766 0,21.44252 -8.81047,38.8034 -9.05553,16.89111 -30.59273,36.36392 l -14.68488,12.66832 q -15.66394,13.60683 -20.3131,21.81857 -4.89533,8.21065 -4.89533,18.0645 z m -82.72268,32.60986 h 82.72268 v 78.35783 h -82.72268 z" style="stroke-width:1.10054" />
<path fill="#ffffff" d="m 414.51754,412.08598 -44.259,-16.109 2.145,-5.892 q 3.67,-10.083 10.541,-16.331 6.919,-6.379 24.267,-13.708 l 10.478,-4.342 q 9.228,-3.759 14.598,-8.329 5.304,-4.387 7.363,-10.043 3.126,-8.59 -1.026,-15.514 -4.105,-7.055 -14.712,-10.915 -9.952,-3.622 -22.99,-3.652 -12.974,-0.125 -28.438,3.411 l 14.026,-38.536 q 16.727,0.245 29.931,2.264 13.2,2.031 24.592,6.178 29.855,10.866 41.102,28.855 11.286,17.884 2.755,41.322 -4.356,11.968 -12.597,19.942 -8.276,7.664 -23.755,14.339 l -10.43,4.211 q -11.145,4.544 -15.301,8.222 -4.287,3.63 -6.289,9.129 z m -50.883,2.092 44.259,16.109 -15.918,43.735 -44.259,-16.109 z" />
<path fill="#ffffff" d="m 130.31864,396.69838 -44.259002,16.109 -2.145,-5.892 q -3.67,-10.083 -2.422,-19.286 1.2,-9.334 9.778,-26.099 l 5.235,-10.061 q 4.652002,-8.811 5.829002,-15.764 1.243,-6.77 -0.816,-12.426 -3.126002,-8.59 -10.758002,-11.225 -7.68,-2.766 -18.286,1.095 -9.952,3.622 -19.959,11.98 -10.019,8.244 -19.592,20.892 l -14.026,-38.536 q 12.971,-10.564 24.384,-17.505 11.417,-6.929 22.809,-11.075 29.855,-10.866 50.034002,-4.316 20.141,6.445 28.672,29.884 4.356,11.968 3.169,23.374 -1.413,11.191 -8.981,26.253 l -5.283,9.93 q -5.616,10.645 -6.436,16.133 -0.951,5.536 1.051,11.036 z m -37.634002,34.31 44.259002,-16.109 15.918,43.735 -44.259,16.109 z" />
</svg>
