<svg xmlns="http://www.w3.org/2000/svg" viewBox="0 0 512 512"><path fill="#fff" d="M252.866 17.74c-23.441 3.045-44.695 30.541-44.695 66.146 0 19.62 6.793 36.974 16.748 48.971l11.878 14.308-18.276 3.435c-12.941 2.433-22.429 9.27-30.54 20.401-8.111 11.133-14.312 26.642-18.657 44.517-7.868 32.383-9.598 71.922-9.874 106.777l43.005 0 11.809 158.341c29.989 6.769 62.009 6.531 90.892.025l10.447-158.365 40.947 0c-.028-35.281-.479-75.367-7.608-107.994-3.93-17.991-9.889-33.479-18.098-44.484-8.211-11.005-18.138-17.802-32.667-20.053l-18.652-2.889 11.774-14.751c9.525-11.936 15.983-29.09 15.983-48.236 0-37.959-23.731-66.054-49.557-66.054zm181.83 37.62c-14.45 13.907-28.921 28.892-43.263 43.263l-.745-14.263-.627-10.776-5.054 5.643-42.715 47.376c1.886 1.699 3.633 3.593 5.249 5.643l35.896-39.815.746 14.225 0 .04.627 10.734 5.054-5.643 44.831-56.43zm62.7 213.18c-20.009 1.366-40.726 3.543-60.951 5.332l8.597-11.405 6.446-8.658-7.499 1.075-63.174 8.836c.352 2.514.474 5.087.394 7.697l53.091-7.426-8.572 11.376-.026.031-6.419 8.626 7.499-1.075 70.615-14.411zm-37.62 225.72c-18.01-8.822-37.042-17.295-55.451-25.857l13.148-5.578 9.912-4.275-7.031-2.819-59.129-23.935c-.952 2.354-2.133 4.642-3.507 6.863l49.691 20.114-13.112 5.567-.038.014-9.873 4.261 7.031 2.819 68.359 22.827zm-382.47-438.9c14.45 13.907 28.921 28.892 43.263 43.263l.745-14.263.627-10.776 5.054 5.643 42.715 47.376c-1.886 1.699-3.633 3.593-5.249 5.643l-35.896-39.815-.746 14.225 0 .04-.627 10.734-5.054-5.643-44.83-56.43zm-62.7 213.18c20.008 1.365 40.726 3.543 60.95 5.332l-8.597-11.405-6.446-8.658 7.498 1.075 63.173 8.836c-.353 2.514-.473 5.088-.394 7.697l-53.089-7.426 8.572 11.377.026 .031 6.419 8.626-7.498-1.075-70.615-14.41zm37.62 225.72c18.01-8.822 37.042-17.295 55.451-25.857l-13.148-5.578-9.912-4.275 7.031-2.819 59.129-23.935c.952 2.354 2.133 4.642 3.507 6.863l-49.691 20.114 13.112 5.567.038 .014 9.873 4.261-7.031 2.819-68.359 22.827z"/></svg>

