<svg xmlns="http://www.w3.org/2000/svg" viewBox="0 0 512 512"><path fill="#fff" d="m288.677 335.54h-114.988v-15.309q0-26.195 10.546-46.267 10.546-20.412 44.226-51.71l20.412-18.711q18.031-16.33 26.536-31.298 8.505-14.493 8.505-29.189 0-22.317-15.309-34.734-15.309-12.757-42.865-12.757-25.855 0-55.793 10.818-29.87 10.546-62.393 31.571v-100.121q38.579-13.404 70.557-19.8 31.979-6.362 61.576-6.362 77.566 0 118.39 31.877 40.824 31.605 40.824 92.5 0 31.094-12.247 56.269-12.587 24.494-42.525 52.731l-20.412 18.371q-21.773 19.732-28.237 31.639-6.804 11.907-6.804 26.195zm-114.988 47.288h114.988v113.627h-114.988z"/></svg>